<svg xmlns="http://www.w3.org/2000/svg" viewBox="0 0 695.8 219.1">
  <title>logo</title>
  <g id="Layer_2" data-name="Layer 2">
    <g id="Layer_1-2" data-name="Layer 1">
      <g>
        <path d="M25.27,85.38c-7,0-7.62-4.55-7.74-13.52V43.36H71.46v28.5c-.13,9-.74,13.52-7.74,13.52V86H86v-.61c-7,0-7.61-4.55-7.74-13.52V14.13C78.34,5.16,79,.61,86,.61V0H63.72V.61c7,0,7.61,4.55,7.74,13.52V42.75H17.53V14.13c.12-9,.74-13.52,7.74-13.52V0H2.91V.61c7,0,7.74,4.55,7.74,13.52V71.86c0,9-.74,13.52-7.74,13.52V86H25.27Z" style="fill: #514333"/>
        <path d="M121.82,85.38c-7,0-7.74-4.43-7.74-13.52V14.13c0-9.09.74-13.52,7.74-13.52V0H99.46V.61c7,0,7.74,4.43,7.74,13.52V71.86c0,9.09-.74,13.52-7.74,13.52V86h22.36Z" style="fill: #514333"/>
        <path d="M215.42,43c0-26.9-19-43-42.62-43H135.33V.61c7,0,7.74,4.43,7.74,13.52V71.86c0,9.09-.74,13.52-7.74,13.52V86H172.8C199.33,86,215.42,69.9,215.42,43ZM157.69,85.38c-7,0-7.74-4.43-7.74-13.52V14.13C150,5,150.69.61,157.69.61H171c14,0,36.49,6.27,36.49,42.38S186.19,85.38,171,85.38Z" style="fill: #514333"/>
        <path d="M308.41,43c0-26.9-19-43-42.63-43H228.32V.61c7,0,7.74,4.43,7.74,13.52V71.86c0,9.09-.74,13.52-7.74,13.52V86h37.46C292.32,86,308.41,69.9,308.41,43ZM250.68,85.38c-7,0-7.74-4.43-7.74-13.52V14.13c0-9.09.73-13.52,7.74-13.52h13.26c14,0,36.49,6.27,36.49,42.38s-21.26,42.39-36.49,42.39Z" style="fill: #514333"/>
        <path d="M384.82,66.09h-.62c-3.56,8-10.93,19.29-23.22,19.29H343.66c-7,0-7.61-4.43-7.74-13.52V43.24h12.53c9.46,0,17.2,6.27,17.2,14.62h.62V28.13h-.62c0,8.35-7.74,14.62-17.2,14.62H335.92V14.13C336.05,5,336.66.61,343.66.61h13.76c12.29,0,19.66,11.31,23.22,19.29h.49l-5-19.9H321.31V.61c7,0,7.74,4.43,7.74,13.52V71.86c0,9.09-.74,13.52-7.74,13.52V86h58.35Z" style="fill: #514333"/>
        <path d="M451,.61c9.22,0,14.5,6.27,14.5,20.89V75.18L407.54,0H391.81V.61c5,0,9.71,4.3,13.64,9.22V64.62c0,14.49-5.28,20.76-14.49,20.76V86h29.72v-.61c-9.21,0-14.62-6.27-14.62-20.76V10.56c2.83,3.57,56.27,72.11,59,75.43h1.1V21.5c0-14.62,5.41-20.89,14.62-20.89V0H451Z" style="fill: #514333"/>
        <path d="M111.38,112.67c10.92,0,11.21,10.19,8,21.55-1.16,4.51-12.23,43.24-18.34,64.93L73.67,111.94H72.51L48.63,199.3c-2.48-7.28-21.69-64.79-24.9-74.84-2.62-8.88-1.16-11.79,5.54-11.79v-.73H0v.73c9,0,13,7.71,16.89,19.65,4.22,12.53,27.81,81.54,27.81,81.54h.73L69.6,125.63l27.22,88.23h.73s19.8-70.91,24.32-84.3c3.78-10.78,9.9-14,18-16.89v-.73H111.38Z" style="fill: #514333"/>
        <path d="M153,112.67c8.3,0,9.17,5.24,9.17,16v68.43c0,10.78-.87,16-9.17,16v.73h26.5v-.73c-8.3,0-9.17-5.24-9.17-16V128.68c0-10.77.87-16,9.17-16v-.73H153Z" style="fill: #514333"/>
        <path d="M242.56,213.13H222c-8.3,0-9-5.24-9.17-16V128.68c.14-10.77.87-16,9.17-16v-.73h-26.5v.73c8.3,0,9.18,5.24,9.18,16v68.43c0,10.78-.88,16-9.18,16v.73h69.16l6.12-23.59h-.73C265.86,199.74,257.12,213.13,242.56,213.13Z" style="fill: #514333"/>
        <path d="M328.75,213.13H308.22c-8.3,0-9-5.24-9.17-16V128.68c.15-10.77.87-16,9.17-16v-.73h-26.5v.73c8.3,0,9.18,5.24,9.18,16v68.43c0,10.78-.88,16-9.18,16v.73h69.16L357,190.27h-.73C352.05,199.74,343.31,213.13,328.75,213.13Z" style="fill: #514333"/>
        <path d="M417.13,110.92c-30.14,2.77-52.71,26.35-49.65,56.93s28.83,49.79,59,47,51.25-25.19,49.5-56.79C474.35,126.5,447.27,108.3,417.13,110.92Zm9.17,103.23c-22.13,2-46.74-15-49.21-47.61s17.91-52.85,40-54.89c22.28-1.89,47.17,16.74,49.36,47.75S448.43,212.26,426.3,214.15Z" style="fill: #514333"/>
        <path d="M592.57,112.67c10.92,0,11.22,10.19,8,21.55-1.16,4.51-12.23,43.24-18.34,64.93l-27.38-87.21H553.7L529.82,199.3c-2.47-7.28-21.69-64.79-24.9-74.84-2.62-8.88-1.16-11.79,5.54-11.79v-.73H481.19v.73c9,0,13,7.71,16.89,19.65,4.22,12.53,27.81,81.54,27.81,81.54h.73l24.17-88.23L578,213.86h.73s19.8-70.91,24.32-84.3c3.78-10.78,9.9-14,18.05-16.89v-.73H592.57Z" style="fill: #514333"/>
        <path d="M640.76,131c0-14.12,12.09-19.65,21.55-19.65,17.62,0,28.25,16.16,28.25,32h.73V106.7h-.73c0,8-2.18,9.46-7.43,8.15-6.4-1.75-13-4.22-21.11-4.22-15.58,0-29,7-29,24.31,0,32,54,29.27,54,58.53,0,11.94-11.06,21.12-24.31,21.12-18.35,0-32.18-18.64-32.18-32h-.73V219.1h.73c0-9.75,7.14-7.72,11.65-6.7a87.17,87.17,0,0,0,20.53,2.91c19.66,0,33-9.6,33-25.77C695.8,158.53,640.76,158.82,640.76,131Z" style="fill: #514333"/>
        <path d="M640.16,59.17c1.62-.22,4.43-.85,5-2.71.44-1.4-.37-3.06-2.41-5a.66.66,0,0,0-.92,0,.65.65,0,0,0,0,.92c.13.12.26.24.38.37,1.3,1.29,1.9,2.47,1.67,3.23-.72,2.25-8,2.19-10.63,1.37a5.43,5.43,0,0,1-3.76-3.75,3.89,3.89,0,0,1,1-3.74,5.52,5.52,0,0,1,6-.91.67.67,0,0,0,.5,0,.63.63,0,0,0,.34-.36.62.62,0,0,0,0-.5.63.63,0,0,0-.35-.35,6.79,6.79,0,0,0-7.49,1.32l-.54.58c-5.21-3.22-5.56-5.09-5.51-5.68,6.37-1.36,12.91-3,19.58-5.15l.41.61a6.54,6.54,0,0,0,7.15,2.35c3.6-1,8.38-4.3,9.15-7.17a2.37,2.37,0,0,0-.69-2.48c-2.23-2.23-8.76-2.3-11.43-1.59a6.39,6.39,0,0,0-5.06,6.26l0,.79-.76.23c-1,.3-2.06.58-3.09.87-4,1.07-10.92,2.74-19.9,4.23-.3-1.54-.41-6.08,6.76-10.36l.54.44a6.51,6.51,0,0,0,7.91-.22c2.94-2.22,7.3-8.65,5.32-11.28a3.47,3.47,0,0,0-2.65-1.14,16.64,16.64,0,0,0-10.46,3.82,6.35,6.35,0,0,0-1.72,6.55l.27.77-.69.43c-2.54,1.57-8.46,5.8-8.59,11.16v.36a233.92,233.92,0,0,1-27.87,2.54,21.69,21.69,0,0,0,5.47-5.23l.66.38c2.23,1.3,5.78,1,8.25-2.06a.71.71,0,0,0,.15-.48.69.69,0,0,0-.24-.44.66.66,0,0,0-.92.1,5.85,5.85,0,0,1-4.1,2.28,4.22,4.22,0,0,1-3.19-1c-1.81-1.71-1.66-4.83.32-7A18.2,18.2,0,0,1,599.55,29c2.14-.92,3.82-1.09,4.5-.45s.62,2.14,0,4.13a.65.65,0,0,0,.43.82.6.6,0,0,0,.49,0,.65.65,0,0,0,.33-.38c.84-2.64.73-4.48-.34-5.48-2.59-2.41-9.37,1.68-11.58,3.88l-.2.21a6.46,6.46,0,0,0-1.26,7.51l.37.67-.54.53c-2.5,2.46-7.22,4.55-10.23,5.73q-6.57,0-13.48-.41c1.57-6.39,7.22-10.8,7.22-10.8l.6.48a6.58,6.58,0,0,0,7.62,0c2.18-1.45,5.62-5.4,6.25-8.55a3.08,3.08,0,0,0-.31-2.4,3.54,3.54,0,0,0-2.78-1.32c-3.63-.37-8.86,1.63-10.76,3.54a6.1,6.1,0,0,0-1.67,6.5l.07.33,0,.53-.44.32c-3.7,2.72-7.3,8.84-8.6,11.2-3.3-.26-6.65-.61-10-1.06-1.12-7.69,3-14.33,3-14.33l.72.25a6.37,6.37,0,0,0,6.47-1.75c1.63-1.63,2.85-4.72,3.41-6.88.82-3.23.48-5.55-.95-6.36-1.82-1-5.83.09-10,4.26a7.48,7.48,0,0,0-2.51,5.61,5.63,5.63,0,0,0,1.22,3.46l.18.25.3.54-.35.52c-2.87,4.2-4.2,12.11-4.48,14a159,159,0,0,1-27-6.45c2.95-1.23,6.95-3.18,9.26-5.44l.3-.29h.82l.2.2a6.5,6.5,0,0,0,7.71-1.63c2.19-2.35,5.81-9.49,3.33-12l-.08-.08c-2.56-2.38-9.35,1.71-11.56,3.91A6.57,6.57,0,0,0,533.75,30l.38.67s-6.56,5.68-12.25,4.94a7.23,7.23,0,0,1-2.93-7l-5.17,15.44c.35-.88,2.33-4.22,11.59-1.95h0l2.91.79c2.32,2.17,6.16,6.11,7.61,9.5l.3.7-.6.47A6.56,6.56,0,0,0,533.9,61c1.3,3.44,6.25,9.43,9.34,8.26a3.14,3.14,0,0,0,1.68-1.78c1.3-2.88.8-8.11-.14-10.59a7.4,7.4,0,0,0-1.67-2.6,5.83,5.83,0,0,0-4.92-1.82l-.15,0-.73-.09a21.84,21.84,0,0,0-4-8.27c4.7,1.05,10.85,2.22,18.21,3.13.29,4.8,5.33,9.93,5.33,9.93l-.47.57c-1.88,2.34-1.48,5.91.93,8.33a18.39,18.39,0,0,0,6.21,3.68c1.58.57,4.44,1.31,5.84-.09,1-1.07,1.05-3,.08-5.53a.68.68,0,0,0-.35-.36.66.66,0,0,0-.5,0,.65.65,0,0,0-.37.84c.74,2,.83,3.51.23,4.13-1,1-3.86,0-4.7-.28a17.64,17.64,0,0,1-5.43-3.21l-.08-.08c-2-2-2.3-5.1-.62-6.85a4.32,4.32,0,0,1,3.17-1.22A5.89,5.89,0,0,1,565,59.15a.63.63,0,0,0,.45.22.64.64,0,0,0,.47-.17.65.65,0,0,0,.22-.45.64.64,0,0,0-.17-.47,6.81,6.81,0,0,0-7.3-2.14l-.74.27-.43-.65c-.66-1-3.89-6-3.3-8.11l0-.08c5.27.58,11.09,1,17.39,1.21l0,.42c-.3,6,6.78,10,9.83,11.5l.73.34-.18.79a6.28,6.28,0,0,0,1.82,5.79c1.28,1.28,4.08,2.5,7,3s5.54.26,6.6-.8a2.6,2.6,0,0,0,.69-2.3c-.4-3.14-4.32-7.31-6.84-8.81a6.44,6.44,0,0,0-7.85.62l-.5.49c-10-4.73-9.15-9.43-8.47-11,6.35.1,13.17-.08,20.35-.63l-.07,0s6.88.1,14.83,7.55l-.42.64a6.48,6.48,0,0,0,.72,7.59c2.38,2.93,8.85,7,11.46,4.92a3.06,3.06,0,0,0,1-2.18c.35-3.17-1.76-8-3.42-10.05a6.45,6.45,0,0,0-7.69-2.11l-.68.33-.51-.57a27.45,27.45,0,0,0-7.5-5.39l-2.3-1.24c6.59-.67,13.47-1.68,20.57-3.11L621,45c1,1.58,3.37,3.54,6.79,5.5l.64.37-.16.71c-.65,2.95,1.4,6.07,4.67,7.1A18.82,18.82,0,0,0,640.16,59.17ZM644,35.84a5.35,5.35,0,0,1,4-4h0c2.9-.77,9.9-.38,10.55,1.84.19.72-.32,1.7-1.42,2.8a18,18,0,0,1-6.82,4.08,6.5,6.5,0,0,1-1.57.2,5.32,5.32,0,0,1-3.18-1A3.87,3.87,0,0,1,644,35.84ZM627.23,25.17c1.63-1.62,4.76-2.62,5.68-2.89,1.91-.56,4.39-1,5.36,0l.08.09c.52.66.31,2.06-.57,3.82a19.39,19.39,0,0,1-3.42,4.73A6.52,6.52,0,0,1,629.8,33a4.28,4.28,0,0,1-3.07-1.23C625,30.08,625.23,27.17,627.23,25.17Zm-49.51,1.64c2.37-1.57,8.83-3.44,10.46-1.81l.14.17c.41.63.2,1.84-.58,3.34a18,18,0,0,1-5,5.81,5.88,5.88,0,0,1-3.25,1,4.47,4.47,0,0,1-3.18-1.22,4.07,4.07,0,0,1-1.11-3.27A5.6,5.6,0,0,1,577.72,26.81Zm-21.09-1.3a6.45,6.45,0,0,1,2.13-4.91c2.69-2.69,7.08-5.08,8.5-4l.11.1c1.64,1.64-.58,8.05-2.33,10.39a5.57,5.57,0,0,1-4.36,2.32,4,4,0,0,1-2.43-.78A4.26,4.26,0,0,1,556.63,25.51Zm-20.49-2.28a18.36,18.36,0,0,1,5.27-3.4c2.14-.92,3.82-1.09,4.49-.45s.61,2.46-.21,4.72a17.49,17.49,0,0,1-3.28,5.62,5.65,5.65,0,0,1-3.94,1.7,4.11,4.11,0,0,1-2.83-1.06l-.09-.1a4.28,4.28,0,0,1-1.16-3.37A5.84,5.84,0,0,1,536.14,23.23Zm3.58,30.59a5.51,5.51,0,0,1,3.84,3.52c1,2.74,1.26,8.8-.34,10.39a1.23,1.23,0,0,1-.55.33,1.12,1.12,0,0,1-.32,0c-.87,0-2.12-.75-3.46-2.09a17.8,17.8,0,0,1-3.77-5.48,5.4,5.4,0,0,1,1-5.66A3.9,3.9,0,0,1,539.72,53.82Zm44.55,6.47a5.21,5.21,0,0,1,6.27-.41c2.61,1.55,5.7,5.49,6.19,7.41a1.82,1.82,0,0,1-.13,1.42,2.26,2.26,0,0,1-1.74.88,8.47,8.47,0,0,1-.94,0c-2.61,0-7.18-.93-9.2-3a5.29,5.29,0,0,1-1.55-3.09A3.88,3.88,0,0,1,584.27,60.29Zm26.71-4c1.77-1.43,4.52-1.09,6.4.79a15.77,15.77,0,0,1,3,5.52c.9,2.73.95,4.51.17,5.3a1.82,1.82,0,0,1-1.18.35,7.3,7.3,0,0,1-3-.84,17.84,17.84,0,0,1-5.57-4.17,5.76,5.76,0,0,1-1.33-3.63A4.18,4.18,0,0,1,611,56.24Z" style="fill: #514333"/>
        <path d="M513.78,44.05a1,1,0,0,0-.06.2Z" style="fill: #514333"/>
      </g>
    </g>
  </g>
</svg>
